<?xml version="1.0" encoding="utf-8"?>
<!-- Generated by IcoMoon.io -->
<!DOCTYPE svg PUBLIC "-//W3C//DTD SVG 1.1//EN" "http://www.w3.org/Graphics/SVG/1.1/DTD/svg11.dtd">
<svg version="1.1" xmlns="http://www.w3.org/2000/svg" xmlns:xlink="http://www.w3.org/1999/xlink" width="32" height="32" viewBox="0 0 32 32">
<path d="M32 9.080c-1.175 0.525-2.443 0.875-3.768 1.031 1.356-0.812 2.393-2.1 2.887-3.631-1.268 0.75-2.674 1.3-4.168 1.593-1.2-1.275-2.906-2.068-4.793-2.068-3.624 0-6.561 2.937-6.561 6.561 0 0.512 0.056 1.012 0.169 1.493-5.455-0.275-10.292-2.887-13.529-6.861-0.562 0.969-0.887 2.1-0.887 3.299 0 2.275 1.156 4.287 2.918 5.461-1.075-0.031-2.087-0.331-2.974-0.819 0 0.025 0 0.056 0 0.081 0 3.181 2.262 5.836 5.268 6.436-0.55 0.15-1.131 0.231-1.731 0.231-0.425 0-0.831-0.044-1.237-0.119 0.837 2.606 3.262 4.505 6.13 4.562-2.25 1.762-5.074 2.812-8.155 2.812-0.531 0-1.050-0.031-1.568-0.094 2.912 1.868 6.361 2.949 10.067 2.949 12.073 0 18.678-10.004 18.678-18.678 0-0.287-0.006-0.569-0.019-0.85 1.281-0.919 2.393-2.075 3.274-3.393z"></path>
</svg>
